<svg width="18" height="14" viewBox="0 0 18 14" fill="none" xmlns="http://www.w3.org/2000/svg">
<path d="M1.66667 8.83333H3.5C4.00417 8.83333 4.41667 8.42083 4.41667 7.91667V6.08333C4.41667 5.57917 4.00417 5.16667 3.5 5.16667H1.66667C1.1625 5.16667 0.75 5.57917 0.75 6.08333V7.91667C0.75 8.42083 1.1625 8.83333 1.66667 8.83333ZM1.66667 13.4167H3.5C4.00417 13.4167 4.41667 13.0042 4.41667 12.5V10.6667C4.41667 10.1625 4.00417 9.75 3.5 9.75H1.66667C1.1625 9.75 0.75 10.1625 0.75 10.6667V12.5C0.75 13.0042 1.1625 13.4167 1.66667 13.4167ZM1.66667 4.25H3.5C4.00417 4.25 4.41667 3.8375 4.41667 3.33333V1.5C4.41667 0.995832 4.00417 0.583332 3.5 0.583332H1.66667C1.1625 0.583332 0.75 0.995832 0.75 1.5V3.33333C0.75 3.8375 1.1625 4.25 1.66667 4.25ZM6.25 8.83333H16.3333C16.8375 8.83333 17.25 8.42083 17.25 7.91667V6.08333C17.25 5.57917 16.8375 5.16667 16.3333 5.16667H6.25C5.74583 5.16667 5.33333 5.57917 5.33333 6.08333V7.91667C5.33333 8.42083 5.74583 8.83333 6.25 8.83333ZM6.25 13.4167H16.3333C16.8375 13.4167 17.25 13.0042 17.25 12.5V10.6667C17.25 10.1625 16.8375 9.75 16.3333 9.75H6.25C5.74583 9.75 5.33333 10.1625 5.33333 10.6667V12.5C5.33333 13.0042 5.74583 13.4167 6.25 13.4167ZM5.33333 1.5V3.33333C5.33333 3.8375 5.74583 4.25 6.25 4.25H16.3333C16.8375 4.25 17.25 3.8375 17.25 3.33333V1.5C17.25 0.995832 16.8375 0.583332 16.3333 0.583332H6.25C5.74583 0.583332 5.33333 0.995832 5.33333 1.5Z" fill="#373737" fill-opacity="0.4"/>
</svg>
